<svg width="26" height="26" viewBox="0 0 26 26" fill="none" xmlns="http://www.w3.org/2000/svg">
<path d="M5.2 2.6H26L22.1 14.3H5.2C4.85522 14.3 4.52456 14.437 4.28076 14.6808C4.03696 14.9246 3.9 15.2552 3.9 15.6C3.9 15.9448 4.03696 16.2754 4.28076 16.5192C4.52456 16.763 4.85522 16.9 5.2 16.9H22.1V19.5H5.2C4.16566 19.5 3.17368 19.0891 2.44228 18.3577C1.71089 17.6263 1.3 16.6343 1.3 15.6C1.3 14.5657 1.71089 13.5737 2.44228 12.8423C3.17368 12.1109 4.16566 11.7 5.2 11.7H5.629L3.9 6.5L2.6 2.6H0V0H3.9C4.24478 0 4.57544 0.136964 4.81924 0.380761C5.06304 0.624558 5.2 0.955218 5.2 1.3V2.6ZM6.5 26C5.81044 26 5.14912 25.7261 4.66152 25.2385C4.17393 24.7509 3.9 24.0896 3.9 23.4C3.9 22.7104 4.17393 22.0491 4.66152 21.5615C5.14912 21.0739 5.81044 20.8 6.5 20.8C7.18956 20.8 7.85088 21.0739 8.33848 21.5615C8.82607 22.0491 9.1 22.7104 9.1 23.4C9.1 24.0896 8.82607 24.7509 8.33848 25.2385C7.85088 25.7261 7.18956 26 6.5 26ZM19.5 26C18.8104 26 18.1491 25.7261 17.6615 25.2385C17.1739 24.7509 16.9 24.0896 16.9 23.4C16.9 22.7104 17.1739 22.0491 17.6615 21.5615C18.1491 21.0739 18.8104 20.8 19.5 20.8C20.1896 20.8 20.8509 21.0739 21.3385 21.5615C21.8261 22.0491 22.1 22.7104 22.1 23.4C22.1 24.0896 21.8261 24.7509 21.3385 25.2385C20.8509 25.7261 20.1896 26 19.5 26Z" fill="#181813"/>
</svg>
