<svg width="112" height="99" viewBox="0 0 112 99" fill="none" xmlns="http://www.w3.org/2000/svg">
<path d="M18.0618 83.9692C18.0618 79.5758 14.5185 76.0439 10.1111 76.0439H0V98.9581H10.1111C14.5185 98.9581 18.0618 95.4263 18.0618 91.0329C18.0618 89.7408 17.7593 88.5778 17.2408 87.501C17.7593 86.4243 18.0618 85.2182 18.0618 83.9692ZM14.605 87.501C13.5679 88.8363 11.9259 89.6977 10.1111 89.6977V91.8944C12.2716 91.8944 14.2161 91.0329 15.6852 89.6546C15.8148 90.0854 15.8581 90.5591 15.8581 91.076C15.8581 94.2203 13.3087 96.8046 10.1111 96.8046H2.5926V78.2837H10.1111C13.2655 78.2837 15.8581 80.8249 15.8581 84.0122C15.8581 84.486 15.8148 84.9598 15.6852 85.3905C14.2593 84.0122 12.2716 83.1508 10.1111 83.1508V85.3475C11.9259 85.3044 13.5679 86.1658 14.605 87.501Z" fill="white"/>
<path d="M32.7534 82.5898V85.1311C31.3275 83.7959 29.4262 82.9775 27.309 82.9775C22.9016 82.9775 19.3584 86.5094 19.3584 90.9027C19.3584 95.296 22.9016 98.8279 27.309 98.8279C29.4262 98.8279 31.3275 98.0095 32.7534 96.6743V98.9571H35.346V82.5898H32.7534ZM27.309 96.3728C24.2843 96.3728 21.8213 93.9177 21.8213 90.9027C21.8213 87.8877 24.2843 85.4326 27.309 85.4326C30.1176 85.4326 32.4077 87.5431 32.7534 90.2136V91.5488C32.4077 94.2623 30.1176 96.3728 27.309 96.3728Z" fill="white"/>
<path d="M69.6545 83.1068C67.5804 83.1068 65.6792 83.8821 64.2965 85.1743V76H61.7039V90.989C61.7039 95.3823 65.2471 98.9142 69.6545 98.9142C74.0619 98.9142 77.6051 95.3823 77.6051 90.989C77.6051 86.6387 74.0619 83.1068 69.6545 83.1068ZM69.6545 96.5022C66.6298 96.5022 64.1668 94.0471 64.1668 91.0321C64.1668 88.017 66.6298 85.5619 69.6545 85.5619C72.6792 85.5619 75.1422 88.017 75.1422 91.0321C75.1422 94.0471 72.6792 96.5022 69.6545 96.5022Z" fill="white"/>
<path d="M69.6545 83.1068C67.5804 83.1068 65.6792 83.8821 64.2965 85.1743V76H61.7039V90.989C61.7039 95.3823 65.2471 98.9142 69.6545 98.9142C74.0619 98.9142 77.6051 95.3823 77.6051 90.989C77.6051 86.6387 74.0619 83.1068 69.6545 83.1068ZM69.6545 96.5022C66.6298 96.5022 64.1668 94.0471 64.1668 91.0321C64.1668 88.017 66.6298 85.5619 69.6545 85.5619C72.6792 85.5619 75.1422 88.017 75.1422 91.0321C75.1422 94.0471 72.6792 96.5022 69.6545 96.5022Z" fill="white"/>
<path d="M86.8519 83.1064C82.4446 83.1064 78.9014 86.6383 78.9014 91.0316C78.9014 95.425 82.4446 98.9568 86.8519 98.9568C91.2593 98.9568 94.8025 95.425 94.8025 91.0316C94.8025 86.6383 91.2593 83.1064 86.8519 83.1064ZM86.8519 96.5018C83.8273 96.5018 81.3643 94.0467 81.3643 91.0316C81.3643 88.0166 83.8273 85.5615 86.8519 85.5615C89.8766 85.5615 92.3396 88.0166 92.3396 91.0316C92.3396 94.0467 89.8766 96.5018 86.8519 96.5018Z" fill="white"/>
<path d="M104.049 83.1064C99.6421 83.1064 96.0989 86.6383 96.0989 91.0316C96.0989 95.425 99.6421 98.9568 104.049 98.9568C108.457 98.9568 112 95.425 112 91.0316C112 86.6383 108.457 83.1064 104.049 83.1064ZM104.049 96.5018C101.025 96.5018 98.5618 94.0467 98.5618 91.0316C98.5618 88.0166 101.025 85.5615 104.049 85.5615C107.074 85.5615 109.537 88.0166 109.537 91.0316C109.537 94.0467 107.074 96.5018 104.049 96.5018Z" fill="white"/>
<path d="M49.8211 91.5483H47.2285V98.9998H49.8211V91.5483Z" fill="white"/>
<path d="M60.4078 91.5483H57.8152V98.9998H60.4078V91.5483Z" fill="white"/>
<path fill-rule="evenodd" clip-rule="evenodd" d="M47.1989 88.6721H46.7833C46.7833 86.4755 44.9684 84.6664 42.7647 84.6664C40.6042 84.6664 38.8326 86.3893 38.7462 88.5429V88.629V88.7152V98.4925H36.1536V82.0821H38.7462V83.3743C39.8696 82.5129 41.2524 82.0391 42.7647 82.0391C45.1733 82.0956 47.266 83.3746 48.4213 85.2688C49.6135 83.6198 51.5568 82.5471 53.7534 82.5471C57.383 82.5471 60.3212 85.476 60.3212 89.0941H57.8151C57.8151 86.8974 56.0003 85.0884 53.7966 85.0884C51.5929 85.0884 49.7781 86.8974 49.7781 89.0941H47.1855C47.1855 88.9523 47.1901 88.8116 47.1989 88.6721Z" fill="white"/>
<path fill-rule="evenodd" clip-rule="evenodd" d="M26 0H86V60H26V0ZM57.9922 7.13553C66.7335 7.13553 73.8099 14.2118 73.8099 22.9532C73.8099 25.5102 73.2152 27.8888 72.1448 29.97C73.2152 32.1108 73.8099 34.4893 73.8099 37.0463C73.8099 45.7877 66.7335 52.864 57.9922 52.864H37.893V7.13553H57.9922ZM58.0517 34.3704C61.679 34.3704 64.8901 32.6459 66.9714 30.0295C64.8901 27.3536 61.6195 25.6886 58.0517 25.6886V21.2882C62.3926 21.2882 66.2578 23.0126 69.1121 25.8075C69.35 24.9155 69.4689 23.9641 69.4689 23.0126C69.4689 16.7094 64.3549 11.5954 58.0517 11.5954H43.126V48.4636H58.0517C64.3549 48.4636 69.4689 43.3496 69.4689 37.0463C69.4689 36.0949 69.35 35.1435 69.1121 34.2515C66.2578 37.0463 62.3331 38.7708 58.0517 38.7708V34.3704Z" fill="white"/>
</svg>
