<svg width="169" height="47" viewBox="0 0 169 47" fill="none" xmlns="http://www.w3.org/2000/svg">
<path d="M75.0618 19.9064C75.0618 15.5131 71.5185 11.9812 67.1111 11.9812H57V34.8952H67.1111C71.5185 34.8952 75.0618 31.3633 75.0618 26.9701C75.0618 25.6779 74.7593 24.515 74.2408 23.4382C74.7593 22.3614 75.0618 21.1554 75.0618 19.9064ZM71.605 23.4382C70.5679 24.7734 68.9259 25.6348 67.1111 25.6348V27.8315C69.2716 27.8315 71.2161 26.9701 72.6852 25.5918C72.8148 26.0225 72.8581 26.4963 72.8581 27.0131C72.8581 30.1573 70.3087 32.7416 67.1111 32.7416H59.5926V14.2209H67.1111C70.2655 14.2209 72.8581 16.7621 72.8581 19.9494C72.8581 20.4232 72.8148 20.897 72.6852 21.3277C71.2593 19.9494 69.2716 19.088 67.1111 19.088V21.2846C68.9259 21.2416 70.5679 22.103 71.605 23.4382Z" fill="white"/>
<path d="M89.7534 18.5271V21.0684C88.3275 19.7331 86.4262 18.9148 84.309 18.9148C79.9016 18.9148 76.3584 22.4466 76.3584 26.8399C76.3584 31.2332 79.9016 34.765 84.309 34.765C86.4262 34.765 88.3275 33.9467 89.7534 32.6115V34.8943H92.346V18.5271H89.7534ZM84.309 32.31C81.2843 32.31 78.8213 29.8549 78.8213 26.8399C78.8213 23.8249 81.2843 21.3699 84.309 21.3699C87.1176 21.3699 89.4077 23.4804 89.7534 26.1508V27.486C89.4077 30.1995 87.1176 32.31 84.309 32.31Z" fill="white"/>
<path d="M126.654 19.044C124.58 19.044 122.679 19.8193 121.296 21.1115V11.9373H118.704V26.9261C118.704 31.3194 122.247 34.8512 126.654 34.8512C131.062 34.8512 134.605 31.3194 134.605 26.9261C134.605 22.5759 131.062 19.044 126.654 19.044ZM126.654 32.4392C123.63 32.4392 121.167 29.9842 121.167 26.9692C121.167 23.9542 123.63 21.4991 126.654 21.4991C129.679 21.4991 132.142 23.9542 132.142 26.9692C132.142 29.9842 129.679 32.4392 126.654 32.4392Z" fill="white"/>
<path d="M126.654 19.044C124.58 19.044 122.679 19.8193 121.296 21.1115V11.9373H118.704V26.9261C118.704 31.3194 122.247 34.8512 126.654 34.8512C131.062 34.8512 134.605 31.3194 134.605 26.9261C134.605 22.5759 131.062 19.044 126.654 19.044ZM126.654 32.4392C123.63 32.4392 121.167 29.9842 121.167 26.9692C121.167 23.9542 123.63 21.4991 126.654 21.4991C129.679 21.4991 132.142 23.9542 132.142 26.9692C132.142 29.9842 129.679 32.4392 126.654 32.4392Z" fill="white"/>
<path d="M143.852 19.0439C139.445 19.0439 135.901 22.5758 135.901 26.969C135.901 31.3623 139.445 34.8942 143.852 34.8942C148.259 34.8942 151.803 31.3623 151.803 26.969C151.803 22.5758 148.259 19.0439 143.852 19.0439ZM143.852 32.4391C140.827 32.4391 138.364 29.984 138.364 26.969C138.364 23.954 140.827 21.499 143.852 21.499C146.877 21.499 149.34 23.954 149.34 26.969C149.34 29.984 146.877 32.4391 143.852 32.4391Z" fill="white"/>
<path d="M161.049 19.0439C156.642 19.0439 153.099 22.5758 153.099 26.969C153.099 31.3623 156.642 34.8942 161.049 34.8942C165.457 34.8942 169 31.3623 169 26.969C169 22.5758 165.457 19.0439 161.049 19.0439ZM161.049 32.4391C158.025 32.4391 155.562 29.984 155.562 26.969C155.562 23.954 158.025 21.499 161.049 21.499C164.074 21.499 166.537 23.954 166.537 26.969C166.537 29.984 164.074 32.4391 161.049 32.4391Z" fill="white"/>
<path d="M106.821 27.4859H104.229V34.9373H106.821V27.4859Z" fill="white"/>
<path d="M117.408 27.4859H114.815V34.9373H117.408V27.4859Z" fill="white"/>
<path fill-rule="evenodd" clip-rule="evenodd" d="M104.199 24.6091H103.783C103.783 22.4124 101.968 20.6034 99.7647 20.6034C97.6042 20.6034 95.8326 22.3263 95.7462 24.4799V24.566V24.6521V34.4293H93.1536V18.0191H95.7462V19.3113C96.8696 18.4499 98.2524 17.9761 99.7647 17.9761C102.173 18.0326 104.266 19.3116 105.421 21.2059C106.614 19.557 108.557 18.4843 110.753 18.4843C114.383 18.4843 117.321 21.4132 117.321 25.0312H114.815C114.815 22.8345 113 21.0255 110.797 21.0255C108.593 21.0255 106.778 22.8345 106.778 25.0312H104.186C104.186 24.8894 104.19 24.7486 104.199 24.6091Z" fill="white"/>
<path fill-rule="evenodd" clip-rule="evenodd" d="M0 0H47V47H0V0ZM25.0604 5.5896C31.9078 5.5896 37.4509 11.1327 37.4509 17.9801C37.4509 19.9831 36.9851 21.8463 36.1467 23.4766C36.9851 25.1535 37.4509 27.0168 37.4509 29.0197C37.4509 35.8671 31.9078 41.4102 25.0604 41.4102H9.31609V5.5896H25.0604ZM25.107 26.9236C27.9484 26.9236 30.4638 25.5728 32.0941 23.5232C30.4638 21.4271 27.9019 20.1228 25.107 20.1228V16.6758C28.5074 16.6758 31.5352 18.0267 33.771 20.216C33.9574 19.5173 34.0505 18.772 34.0505 18.0267C34.0505 13.0891 30.0446 9.08316 25.107 9.08316H13.4152V37.9632H25.107C30.0446 37.9632 34.0505 33.9573 34.0505 29.0197C34.0505 28.2744 33.9574 27.5291 33.771 26.8304C31.5352 29.0197 28.4608 30.3706 25.107 30.3706V26.9236Z" fill="white"/>
</svg>
