<svg width="32" height="32" viewBox="0 0 32 32" fill="none" xmlns="http://www.w3.org/2000/svg">
<path d="M20.6402 22.9114C18.0685 24.9091 14.8321 25.8516 11.59 25.5468C8.34787 25.2421 5.34377 23.7131 3.18939 21.2712C1.03501 18.8293 -0.107664 15.6581 -0.0059563 12.4032C0.0957518 9.14839 1.43419 6.05469 3.73683 3.75205C6.03947 1.4494 9.13318 0.110965 12.388 0.00925672C15.6429 -0.0924514 18.8141 1.05022 21.256 3.2046C23.6979 5.35898 25.2269 8.36309 25.5316 11.6052C25.8364 14.8474 24.8939 18.0838 22.8962 20.6554L31.4562 29.1834L29.1842 31.4554L20.6562 22.9114H20.6402ZM12.8002 22.3994C14.0609 22.3994 15.3092 22.1511 16.474 21.6687C17.6387 21.1862 18.697 20.4791 19.5884 19.5876C20.4799 18.6962 21.187 17.6379 21.6694 16.4732C22.1519 15.3085 22.4002 14.0601 22.4002 12.7994C22.4002 11.5387 22.1519 10.2904 21.6694 9.12565C21.187 7.96093 20.4799 6.90263 19.5884 6.01119C18.697 5.11975 17.6387 4.41262 16.474 3.93017C15.3092 3.44773 14.0609 3.19941 12.8002 3.19941C10.2541 3.19941 7.81232 4.21084 6.01197 6.01119C4.21163 7.81154 3.2002 10.2533 3.2002 12.7994C3.2002 15.3455 4.21163 17.7873 6.01197 19.5876C7.81232 21.388 10.2541 22.3994 12.8002 22.3994Z" fill="white"/>
</svg>
